<?xml version="1.0" ?><svg height="24" id="svg8" version="1.1" viewBox="0 0 24 24" width="24" xmlns="http://www.w3.org/2000/svg" xmlns:cc="http://creativecommons.org/ns#" xmlns:dc="http://purl.org/dc/elements/1.1/" xmlns:rdf="http://www.w3.org/1999/02/22-rdf-syntax-ns#" xmlns:svg="http://www.w3.org/2000/svg"><defs id="defs2"><rect height="7.0346723" id="rect2504" width="7.9207187" x="-1.1008456" y="289.81766"/></defs><g id="g2799" transform="translate(9.755e-4,1.8e-5)"><path d="m 81.404297,1.5 v 20.958984 h 14.529297 v -0.0098 c 0.244517,0.03095 0.491373,0.05078 0.74414,0.05078 3.261561,0 5.916016,-2.656408 5.916016,-5.917969 0,-3.128724 -2.44349,-5.690403 -5.521484,-5.894531 V 1.5 Z m 1.001953,1 h 13.667969 v 8.197266 c -0.315671,0.03216 -0.620773,0.09576 -0.919922,0.175781 V 9.6230469 H 83.322266 V 20.375 h 8.822265 c 0.3449,0.411873 0.744211,0.776459 1.1875,1.082031 H 82.40625 Z m 1.916016,8.125 h 2.720703 v 2.105469 h -2.720703 z m 3.71875,0 h 2.722656 v 2.105469 h -2.722656 z m 3.720703,0 h 2.392578 c 0.02319,0.180763 -0.0067,0.415935 -0.0039,0.617188 -0.969504,0.461013 -1.795925,1.173334 -2.388672,2.058593 z m 4.916015,1.042969 c 2.721121,0 4.917966,2.192941 4.917966,4.914062 0,2.721121 -2.196845,4.917969 -4.917966,4.917969 -2.721121,0 -4.916015,-2.196848 -4.916015,-4.917969 0,-2.721121 2.194894,-4.914062 4.916015,-4.914062 z m -12.355468,2.0625 h 2.720703 v 2.25 h -2.720703 z m 3.71875,0 h 2.722656 v 2.25 h -2.722656 z m -3.71875,3.25 h 2.720703 v 2.392578 h -2.720703 z m 3.71875,0 h 2.722656 v 2.392578 h -2.722656 z" id="path1671" style="color:#000000;font-style:normal;font-variant:normal;font-weight:normal;font-stretch:normal;font-size:medium;line-height:normal;font-family:sans-serif;font-variant-ligatures:normal;font-variant-position:normal;font-variant-caps:normal;font-variant-numeric:normal;font-variant-alternates:normal;font-variant-east-asian:normal;font-feature-settings:normal;font-variation-settings:normal;text-indent:0;text-align:start;text-decoration:none;text-decoration-line:none;text-decoration-style:solid;text-decoration-color:#000000;letter-spacing:normal;word-spacing:normal;text-transform:none;writing-mode:lr-tb;direction:ltr;text-orientation:mixed;dominant-baseline:auto;baseline-shift:baseline;text-anchor:start;white-space:normal;shape-padding:0;shape-margin:0;inline-size:0;clip-rule:nonzero;display:inline;overflow:visible;visibility:visible;isolation:auto;mix-blend-mode:normal;color-interpolation:sRGB;color-interpolation-filters:linearRGB;solid-color:#000000;solid-opacity:1;vector-effect:none;fill:#000000;fill-opacity:1;fill-rule:nonzero;stroke:none;stroke-width:1;stroke-linecap:square;stroke-linejoin:miter;stroke-miterlimit:4;stroke-dasharray:none;stroke-dashoffset:0;stroke-opacity:1;paint-order:stroke fill markers;color-rendering:auto;image-rendering:auto;shape-rendering:auto;text-rendering:auto;enable-background:accumulate;stop-color:#000000" transform="translate(-79.999999)"/><path d="M 3.3936398,3.5222162 V 4.0236473 8.7121342 H 15.083121 V 3.5222162 Z M 4.3943863,4.5229627 H 14.08449 V 7.7135034 H 4.3943863 Z" id="path1675" style="color:#000000;font-style:normal;font-variant:normal;font-weight:normal;font-stretch:normal;font-size:medium;line-height:normal;font-family:sans-serif;font-variant-ligatures:normal;font-variant-position:normal;font-variant-caps:normal;font-variant-numeric:normal;font-variant-alternates:normal;font-variant-east-asian:normal;font-feature-settings:normal;font-variation-settings:normal;text-indent:0;text-align:start;text-decoration:none;text-decoration-line:none;text-decoration-style:solid;text-decoration-color:#000000;letter-spacing:normal;word-spacing:normal;text-transform:none;writing-mode:lr-tb;direction:ltr;text-orientation:mixed;dominant-baseline:auto;baseline-shift:baseline;text-anchor:start;white-space:normal;shape-padding:0;shape-margin:0;inline-size:0;clip-rule:nonzero;display:inline;overflow:visible;visibility:visible;isolation:auto;mix-blend-mode:normal;color-interpolation:sRGB;color-interpolation-filters:linearRGB;solid-color:#000000;solid-opacity:1;vector-effect:none;fill:#000000;fill-opacity:1;fill-rule:nonzero;stroke:none;stroke-width:1;stroke-linecap:square;stroke-linejoin:miter;stroke-miterlimit:4;stroke-dasharray:none;stroke-dashoffset:0;stroke-opacity:1;paint-order:stroke fill markers;color-rendering:auto;image-rendering:auto;shape-rendering:auto;text-rendering:auto;enable-background:accumulate;stop-color:#000000"/><path d="m 96.167969,13.097656 v 1 h -1.308594 v 2.976563 h 2.617187 v 1.017578 h -2.617187 v 0.978515 h 1.308594 v 0.998047 h 1.021484 v -0.998047 h 1.308594 v -2.974609 h -2.617188 v -1.019531 h 2.617188 v -0.978516 h -1.308594 v -1 z" id="path1703" style="color:#000000;font-style:normal;font-variant:normal;font-weight:normal;font-stretch:normal;font-size:medium;line-height:normal;font-family:sans-serif;font-variant-ligatures:normal;font-variant-position:normal;font-variant-caps:normal;font-variant-numeric:normal;font-variant-alternates:normal;font-variant-east-asian:normal;font-feature-settings:normal;font-variation-settings:normal;text-indent:0;text-align:start;text-decoration:none;text-decoration-line:none;text-decoration-style:solid;text-decoration-color:#000000;letter-spacing:normal;word-spacing:normal;text-transform:none;writing-mode:lr-tb;direction:ltr;text-orientation:mixed;dominant-baseline:auto;baseline-shift:baseline;text-anchor:start;white-space:normal;shape-padding:0;shape-margin:0;inline-size:0;clip-rule:nonzero;display:inline;overflow:visible;visibility:visible;isolation:auto;mix-blend-mode:normal;color-interpolation:sRGB;color-interpolation-filters:linearRGB;solid-color:#000000;solid-opacity:1;vector-effect:none;fill:#000000;fill-opacity:1;fill-rule:nonzero;stroke:none;stroke-width:0.999995px;stroke-linecap:square;stroke-linejoin:miter;stroke-miterlimit:4;stroke-dasharray:none;stroke-dashoffset:0;stroke-opacity:1;color-rendering:auto;image-rendering:auto;shape-rendering:auto;text-rendering:auto;enable-background:accumulate;stop-color:#000000" transform="translate(-79.999999)"/></g></svg>