<?xml version="1.0" ?><svg id="Layer_1" style="enable-background:new 0 0 64 64;" version="1.1" viewBox="0 0 64 64" xml:space="preserve" xmlns="http://www.w3.org/2000/svg" xmlns:xlink="http://www.w3.org/1999/xlink"><style type="text/css">
	.st0{fill:none;stroke:#000000;stroke-miterlimit:10;}
	.st1{fill:none;stroke:#000000;stroke-linecap:round;stroke-miterlimit:10;}
</style><path class="st0" d="M16.8,55.5c-3.5,0-6.3-2.9-6.3-6.4V14.9c0-3.5,2.8-6.4,6.3-6.4h17.4c3.5,0,6.3,2.9,6.3,6.4v34.3  c0,3.5-2.8,6.4-6.3,6.4L16.8,55.5L16.8,55.5z"/><path class="st0" d="M34,32.5c1.4,0,2.5-1.1,2.5-2.5V15c0-1.4-1.1-2.5-2.5-2.5H17c-1.4,0-2.5,1.1-2.5,2.5v15c0,1.4,1.1,2.5,2.5,2.5  H34z"/><path class="st1" d="M17,22v-5c0-1.1,0.9-2,2-2"/><line class="st1" x1="17" x2="17" y1="27" y2="25"/><path class="st1" d="M34,28c0,1.1-0.9,2-2,2"/><circle cx="48" cy="26" r="2"/><path class="st0" d="M40.5,43.5v-22h10c1.6,0,3,1.4,3,3v16c0,1.6-1.4,3-3,3H40.5z"/><path d="M49.5,41c-0.3,0-0.5-0.2-0.5-0.5v-10c0-0.3,0.2-0.5,0.5-0.5s0.5,0.2,0.5,0.5v10C50,40.8,49.8,41,49.5,41z"/><path d="M46.5,41c-0.3,0-0.5-0.2-0.5-0.5v-10c0-0.3,0.2-0.5,0.5-0.5s0.5,0.2,0.5,0.5v10C47,40.8,46.8,41,46.5,41z"/><path d="M43.5,41c-0.3,0-0.5-0.2-0.5-0.5v-16c0-0.3,0.2-0.5,0.5-0.5s0.5,0.2,0.5,0.5v16C44,40.8,43.8,41,43.5,41z"/><path class="st0" d="M32,39.5c-0.8,0-1.5-0.7-1.5-1.5v-1c0-0.8,0.7-1.5,1.5-1.5h3c0.8,0,1.5,0.7,1.5,1.5v1c0,0.8-0.7,1.5-1.5,1.5H32  z"/><path class="st0" d="M24,39.5c-0.8,0-1.5-0.7-1.5-1.5v-1c0-0.8,0.7-1.5,1.5-1.5h3c0.8,0,1.5,0.7,1.5,1.5v1c0,0.8-0.7,1.5-1.5,1.5H24  z"/><path class="st0" d="M24,45.5c-0.8,0-1.5-0.7-1.5-1.5v-1c0-0.8,0.7-1.5,1.5-1.5h3c0.8,0,1.5,0.7,1.5,1.5v1c0,0.8-0.7,1.5-1.5,1.5H24  z"/><path class="st0" d="M32,51.5c-0.8,0-1.5-0.7-1.5-1.5v-7c0-0.8,0.7-1.5,1.5-1.5h3c0.8,0,1.5,0.7,1.5,1.5v7c0,0.8-0.7,1.5-1.5,1.5H32  z"/><path class="st0" d="M24,51.5c-0.8,0-1.5-0.7-1.5-1.5v-1c0-0.8,0.7-1.5,1.5-1.5h3c0.8,0,1.5,0.7,1.5,1.5v1c0,0.8-0.7,1.5-1.5,1.5H24  z"/><path class="st0" d="M16,45.5c-0.8,0-1.5-0.7-1.5-1.5v-1c0-0.8,0.7-1.5,1.5-1.5h3c0.8,0,1.5,0.7,1.5,1.5v1c0,0.8-0.7,1.5-1.5,1.5H16  z"/><path class="st0" d="M16,51.5c-0.8,0-1.5-0.7-1.5-1.5v-1c0-0.8,0.7-1.5,1.5-1.5h3c0.8,0,1.5,0.7,1.5,1.5v1c0,0.8-0.7,1.5-1.5,1.5H16  z"/><path class="st0" d="M16,39.5c-0.8,0-1.5-0.7-1.5-1.5v-1c0-0.8,0.7-1.5,1.5-1.5h3c0.8,0,1.5,0.7,1.5,1.5v1c0,0.8-0.7,1.5-1.5,1.5H16  z"/></svg>