<?xml version="1.0" ?><svg id="Layer_1" style="enable-background:new 0 0 512 512;" version="1.1" viewBox="0 0 512 512" xml:space="preserve" xmlns="http://www.w3.org/2000/svg" xmlns:xlink="http://www.w3.org/1999/xlink"><g><g><path d="M236.6,118.7c-56-41.6-135.1-30-176.7,26c-41.6,56-30,135.1,26,176.7s135.1,30,176.7-26    C304.2,239.4,292.6,160.3,236.6,118.7z M118,278.2c-32.1-23.9-38.8-69.3-14.9-101.5s69.3-38.8,101.5-14.9s38.8,69.3,14.9,101.5    C195.5,295.5,150.1,302.1,118,278.2z"/><g><path d="M195,174.7c-25-18.6-60.4-13.4-79.1,11.6c-18.6,25-13.4,60.4,11.6,79.1s60.4,13.4,79.1-11.6     C225.2,228.7,220,193.3,195,174.7z M135.8,254.3c-18.9-14.1-22.8-40.8-8.8-59.7s40.8-22.8,59.7-8.8c18.9,14.1,22.8,40.8,8.8,59.7     S154.7,268.4,135.8,254.3z"/></g><circle cx="161.2" cy="220" id="XMLID_22_" r="27.5"/><g><path d="M241,150.7L207.8,126l28.5-33.6c2.9-3.4,7.8-4,11.2-1.4l15.5,11.5c3.4,2.5,4.2,7.5,1.8,11.2L241,150.7z" id="XMLID_21_"/><path d="M266.7,227.4l-6-40.9l43.9-3.6c4.4-0.4,8.4,2.7,9,6.9l2.8,19.1c0.6,4.2-2.3,8.3-6.6,9.2L266.7,227.4z" id="XMLID_20_"/><path d="M230.6,299.8l24.6-33.1l33.6,28.5c3.4,2.9,4,7.8,1.4,11.2l-11.5,15.5c-2.5,3.4-7.5,4.2-11.2,1.8     L230.6,299.8z" id="XMLID_19_"/><path d="M153.9,325.5l40.9-6l3.6,43.9c0.4,4.4-2.7,8.4-6.9,9l-19.1,2.8c-4.2,0.6-8.3-2.3-9.2-6.6L153.9,325.5z" id="XMLID_18_"/><path d="M81.5,289.4l33.1,24.6l-28.5,33.6c-2.9,3.4-7.8,4-11.2,1.4l-15.5-11.5c-3.4-2.5-4.2-7.5-1.8-11.2     L81.5,289.4z" id="XMLID_17_"/><path d="M55.8,212.7l6,40.9l-43.9,3.6c-4.4,0.4-8.4-2.7-9-6.9l-2.8-19.1c-0.6-4.2,2.3-8.3,6.6-9.2L55.8,212.7z" id="XMLID_16_"/><path d="M91.9,140.3l-24.6,33.1l-33.6-28.5c-3.4-2.9-4-7.8-1.4-11.2l11.5-15.5c2.5-3.4,7.5-4.2,11.2-1.8     L91.9,140.3z" id="XMLID_15_"/><path d="M168.6,114.6l-40.9,6l-3.6-43.9c-0.4-4.4,2.7-8.4,6.9-9l19.1-2.8c4.2-0.6,8.3,2.3,9.2,6.6L168.6,114.6z" id="XMLID_14_"/></g></g><g><path d="M449.2,264.7c-39.8-29.6-96.1-21.3-125.7,18.5C294,323,302.2,379.3,342,408.9s96.1,21.3,125.7-18.5    C497.3,350.6,489,294.3,449.2,264.7z M364.8,378.2c-22.8-17-27.6-49.3-10.6-72.1c17-22.8,49.3-27.6,72.1-10.6s27.6,49.3,10.6,72.1    C420,390.4,387.7,395.2,364.8,378.2z"/><g><path d="M419.6,304.6c-17.8-13.2-43-9.5-56.2,8.3c-13.2,17.8-9.5,43,8.3,56.2s43,9.5,56.2-8.3C441.1,343,437.4,317.8,419.6,304.6     z M377.5,361.2c-13.4-10-16.2-29-6.2-42.5c10-13.4,29-16.2,42.5-6.2s16.2,29,6.2,42.5S391,371.2,377.5,361.2z"/></g><circle cx="395.6" cy="336.8" id="XMLID_9_" r="19.5"/><g><path d="M452.3,287.5L428.8,270l20.3-23.9c2-2.4,5.6-2.8,8-1l11,8.2c2.4,1.8,3,5.3,1.3,7.9L452.3,287.5z" id="XMLID_8_"/><path d="M470.6,342l-4.3-29.1l31.2-2.5c3.1-0.3,5.9,2,6.4,4.9l2,13.6c0.4,3-1.6,5.9-4.7,6.5L470.6,342z" id="XMLID_7_"/><path d="M444.9,393.5l17.5-23.6l23.9,20.3c2.4,2,2.8,5.6,1,8l-8.2,11c-1.8,2.4-5.3,3-7.9,1.3L444.9,393.5z" id="XMLID_6_"/><path d="M390.4,411.8l29.1-4.3l2.5,31.2c0.3,3.1-2,5.9-4.9,6.4l-13.6,2c-3,0.4-5.9-1.6-6.5-4.7L390.4,411.8z" id="XMLID_5_"/><path d="M338.9,386.1l23.6,17.5l-20.3,23.9c-2,2.4-5.6,2.8-8,1l-11-8.2c-2.4-1.8-3-5.3-1.3-7.9L338.9,386.1z" id="XMLID_4_"/><path d="M320.6,331.6l4.3,29.1l-31.2,2.5c-3.1,0.3-5.9-2-6.4-4.9l-2-13.6c-0.4-3,1.6-5.9,4.7-6.5L320.6,331.6z" id="XMLID_3_"/><path d="M346.3,280.1l-17.5,23.6l-23.9-20.3c-2.4-2-2.8-5.6-1-8l8.2-11c1.8-2.4,5.3-3,7.9-1.3L346.3,280.1z" id="XMLID_2_"/><path d="M400.8,261.8l-29.1,4.3l-2.5-31.2c-0.3-3.1,2-5.9,4.9-6.4l13.6-2c3-0.4,5.9,1.6,6.5,4.7L400.8,261.8z" id="XMLID_1_"/></g></g></g></svg>